<mxfile host="Electron" modified="2023-10-22T20:46:38.947Z" agent="Mozilla/5.0 (X11; Linux x86_64) AppleWebKit/537.36 (KHTML, like Gecko) draw.io/22.0.3 Chrome/114.0.5735.289 Electron/25.9.2 Safari/537.36" etag="nx8YhYzkkzu8Qkdw7z8f" version="22.0.3" type="device">
  <diagram name="Page-1" id="54yv6Cq5hwrmPLPCBpko">
    <mxGraphModel dx="2074" dy="1242" grid="1" gridSize="10" guides="1" tooltips="1" connect="1" arrows="1" fold="1" page="1" pageScale="1" pageWidth="850" pageHeight="1100" math="0" shadow="0">
      <root>
        <mxCell id="0" />
        <mxCell id="1" parent="0" />
      </root>
    </mxGraphModel>
  </diagram>
</mxfile>
